<mxfile host="app.diagrams.net" modified="2024-06-07T04:33:59.734Z" agent="Mozilla/5.0 (Windows NT 10.0; Win64; x64) AppleWebKit/537.36 (KHTML, like Gecko) Chrome/125.0.0.0 Safari/537.36" etag="ttYq6SlUQZpKzJOVf6mW" version="24.4.14" type="device">
  <diagram name="Page-1" id="Of9Uxh95Q-X_KCOaJxD-">
    <mxGraphModel dx="1877" dy="522" grid="1" gridSize="10" guides="1" tooltips="1" connect="1" arrows="1" fold="1" page="1" pageScale="1" pageWidth="827" pageHeight="1169" math="0" shadow="0">
      <root>
        <mxCell id="0" />
        <mxCell id="1" parent="0" />
        <mxCell id="voYisuBpqOGVWTI6edSo-1" value="add.py" style="whiteSpace=wrap;html=1;aspect=fixed;" parent="1" vertex="1">
          <mxGeometry x="-40" y="30" width="170" height="170" as="geometry" />
        </mxCell>
        <mxCell id="voYisuBpqOGVWTI6edSo-2" value="git" style="rounded=1;whiteSpace=wrap;html=1;" parent="1" vertex="1">
          <mxGeometry x="190" y="85" width="120" height="60" as="geometry" />
        </mxCell>
        <mxCell id="voYisuBpqOGVWTI6edSo-5" value="" style="edgeStyle=orthogonalEdgeStyle;rounded=0;orthogonalLoop=1;jettySize=auto;html=1;" parent="1" source="voYisuBpqOGVWTI6edSo-3" target="voYisuBpqOGVWTI6edSo-4" edge="1">
          <mxGeometry relative="1" as="geometry" />
        </mxCell>
        <mxCell id="voYisuBpqOGVWTI6edSo-3" value="Working Directory" style="rounded=0;whiteSpace=wrap;html=1;" parent="1" vertex="1">
          <mxGeometry x="-30" y="280" width="230" height="100" as="geometry" />
        </mxCell>
        <mxCell id="voYisuBpqOGVWTI6edSo-4" value="Staging Area" style="rounded=1;whiteSpace=wrap;html=1;" parent="1" vertex="1">
          <mxGeometry x="360" y="280" width="170" height="100" as="geometry" />
        </mxCell>
        <mxCell id="voYisuBpqOGVWTI6edSo-6" value="staging" style="text;html=1;align=center;verticalAlign=middle;whiteSpace=wrap;rounded=0;" parent="1" vertex="1">
          <mxGeometry x="230" y="280" width="60" height="30" as="geometry" />
        </mxCell>
        <mxCell id="voYisuBpqOGVWTI6edSo-7" value="unstage" style="text;html=1;align=center;verticalAlign=middle;whiteSpace=wrap;rounded=0;" parent="1" vertex="1">
          <mxGeometry x="240" y="340" width="60" height="30" as="geometry" />
        </mxCell>
        <mxCell id="voYisuBpqOGVWTI6edSo-8" value="" style="endArrow=classic;html=1;rounded=0;exitX=-0.02;exitY=0.9;exitDx=0;exitDy=0;exitPerimeter=0;" parent="1" source="voYisuBpqOGVWTI6edSo-4" edge="1">
          <mxGeometry width="50" height="50" relative="1" as="geometry">
            <mxPoint x="345" y="365" as="sourcePoint" />
            <mxPoint x="195" y="370" as="targetPoint" />
          </mxGeometry>
        </mxCell>
        <mxCell id="voYisuBpqOGVWTI6edSo-14" value="" style="edgeStyle=orthogonalEdgeStyle;rounded=0;orthogonalLoop=1;jettySize=auto;html=1;" parent="1" source="voYisuBpqOGVWTI6edSo-10" target="voYisuBpqOGVWTI6edSo-13" edge="1">
          <mxGeometry relative="1" as="geometry" />
        </mxCell>
        <mxCell id="voYisuBpqOGVWTI6edSo-10" value="Local Repo" style="rounded=1;whiteSpace=wrap;html=1;" parent="1" vertex="1">
          <mxGeometry x="620" y="260" width="180" height="90" as="geometry" />
        </mxCell>
        <mxCell id="voYisuBpqOGVWTI6edSo-12" value="" style="edgeStyle=orthogonalEdgeStyle;rounded=0;orthogonalLoop=1;jettySize=auto;html=1;entryX=0;entryY=0.5;entryDx=0;entryDy=0;exitX=1;exitY=0.25;exitDx=0;exitDy=0;" parent="1" source="voYisuBpqOGVWTI6edSo-4" target="voYisuBpqOGVWTI6edSo-10" edge="1">
          <mxGeometry relative="1" as="geometry">
            <mxPoint x="210" y="340" as="sourcePoint" />
            <mxPoint x="370" y="340" as="targetPoint" />
          </mxGeometry>
        </mxCell>
        <mxCell id="voYisuBpqOGVWTI6edSo-13" value="Remote Repo&lt;br&gt;Cloud" style="rounded=1;whiteSpace=wrap;html=1;" parent="1" vertex="1">
          <mxGeometry x="620" y="90" width="180" height="90" as="geometry" />
        </mxCell>
        <mxCell id="JHmqWKbBTHZgdUDeonHa-7" value="" style="edgeStyle=orthogonalEdgeStyle;rounded=0;orthogonalLoop=1;jettySize=auto;html=1;" edge="1" parent="1" source="JHmqWKbBTHZgdUDeonHa-1" target="JHmqWKbBTHZgdUDeonHa-6">
          <mxGeometry relative="1" as="geometry" />
        </mxCell>
        <mxCell id="JHmqWKbBTHZgdUDeonHa-1" value="Praveen Dev1&lt;span style=&quot;white-space: pre;&quot;&gt;&#x9;&lt;/span&gt;" style="whiteSpace=wrap;html=1;aspect=fixed;" vertex="1" parent="1">
          <mxGeometry x="90" y="590" width="140" height="140" as="geometry" />
        </mxCell>
        <mxCell id="JHmqWKbBTHZgdUDeonHa-9" value="" style="edgeStyle=orthogonalEdgeStyle;rounded=0;orthogonalLoop=1;jettySize=auto;html=1;" edge="1" parent="1" source="JHmqWKbBTHZgdUDeonHa-2" target="JHmqWKbBTHZgdUDeonHa-8">
          <mxGeometry relative="1" as="geometry" />
        </mxCell>
        <mxCell id="JHmqWKbBTHZgdUDeonHa-2" value="Sai Dev2" style="whiteSpace=wrap;html=1;aspect=fixed;" vertex="1" parent="1">
          <mxGeometry x="280" y="590" width="140" height="140" as="geometry" />
        </mxCell>
        <mxCell id="JHmqWKbBTHZgdUDeonHa-11" value="" style="edgeStyle=orthogonalEdgeStyle;rounded=0;orthogonalLoop=1;jettySize=auto;html=1;" edge="1" parent="1" source="JHmqWKbBTHZgdUDeonHa-3" target="JHmqWKbBTHZgdUDeonHa-10">
          <mxGeometry relative="1" as="geometry" />
        </mxCell>
        <mxCell id="JHmqWKbBTHZgdUDeonHa-3" value="Kiran Dev3" style="whiteSpace=wrap;html=1;aspect=fixed;" vertex="1" parent="1">
          <mxGeometry x="450" y="590" width="140" height="140" as="geometry" />
        </mxCell>
        <mxCell id="JHmqWKbBTHZgdUDeonHa-19" value="" style="edgeStyle=orthogonalEdgeStyle;rounded=0;orthogonalLoop=1;jettySize=auto;html=1;" edge="1" parent="1" source="JHmqWKbBTHZgdUDeonHa-4" target="JHmqWKbBTHZgdUDeonHa-18">
          <mxGeometry relative="1" as="geometry" />
        </mxCell>
        <mxCell id="JHmqWKbBTHZgdUDeonHa-4" value="Meher&lt;div&gt;URL: compayname/commonprojectname/anydetailname/Calc_meme.git&lt;/div&gt;" style="rounded=0;whiteSpace=wrap;html=1;" vertex="1" parent="1">
          <mxGeometry x="100" y="480" width="460" height="60" as="geometry" />
        </mxCell>
        <mxCell id="JHmqWKbBTHZgdUDeonHa-5" value="PM/PO" style="rounded=1;whiteSpace=wrap;html=1;" vertex="1" parent="1">
          <mxGeometry x="70" y="400" width="120" height="60" as="geometry" />
        </mxCell>
        <mxCell id="JHmqWKbBTHZgdUDeonHa-34" style="edgeStyle=orthogonalEdgeStyle;rounded=0;orthogonalLoop=1;jettySize=auto;html=1;exitX=0.25;exitY=1;exitDx=0;exitDy=0;entryX=0;entryY=0.5;entryDx=0;entryDy=0;" edge="1" parent="1" source="JHmqWKbBTHZgdUDeonHa-6" target="JHmqWKbBTHZgdUDeonHa-12">
          <mxGeometry relative="1" as="geometry" />
        </mxCell>
        <mxCell id="JHmqWKbBTHZgdUDeonHa-6" value="Addition.py" style="whiteSpace=wrap;html=1;" vertex="1" parent="1">
          <mxGeometry x="100" y="850" width="120" height="60" as="geometry" />
        </mxCell>
        <mxCell id="JHmqWKbBTHZgdUDeonHa-13" value="" style="edgeStyle=orthogonalEdgeStyle;rounded=0;orthogonalLoop=1;jettySize=auto;html=1;" edge="1" parent="1" source="JHmqWKbBTHZgdUDeonHa-8" target="JHmqWKbBTHZgdUDeonHa-12">
          <mxGeometry relative="1" as="geometry" />
        </mxCell>
        <mxCell id="JHmqWKbBTHZgdUDeonHa-8" value="Substraction.py" style="whiteSpace=wrap;html=1;" vertex="1" parent="1">
          <mxGeometry x="290" y="850" width="120" height="60" as="geometry" />
        </mxCell>
        <mxCell id="JHmqWKbBTHZgdUDeonHa-10" value="Multiplication.py" style="whiteSpace=wrap;html=1;" vertex="1" parent="1">
          <mxGeometry x="460" y="850" width="120" height="60" as="geometry" />
        </mxCell>
        <mxCell id="JHmqWKbBTHZgdUDeonHa-15" value="" style="edgeStyle=orthogonalEdgeStyle;rounded=0;orthogonalLoop=1;jettySize=auto;html=1;" edge="1" parent="1" source="JHmqWKbBTHZgdUDeonHa-12" target="JHmqWKbBTHZgdUDeonHa-14">
          <mxGeometry relative="1" as="geometry" />
        </mxCell>
        <mxCell id="JHmqWKbBTHZgdUDeonHa-12" value="Working Dir" style="whiteSpace=wrap;html=1;" vertex="1" parent="1">
          <mxGeometry x="290" y="990" width="120" height="60" as="geometry" />
        </mxCell>
        <mxCell id="JHmqWKbBTHZgdUDeonHa-17" value="" style="edgeStyle=orthogonalEdgeStyle;rounded=0;orthogonalLoop=1;jettySize=auto;html=1;" edge="1" parent="1" source="JHmqWKbBTHZgdUDeonHa-14" target="JHmqWKbBTHZgdUDeonHa-16">
          <mxGeometry relative="1" as="geometry" />
        </mxCell>
        <mxCell id="JHmqWKbBTHZgdUDeonHa-14" value="Staging Area" style="whiteSpace=wrap;html=1;" vertex="1" parent="1">
          <mxGeometry x="290" y="1130" width="120" height="60" as="geometry" />
        </mxCell>
        <mxCell id="JHmqWKbBTHZgdUDeonHa-21" value="" style="edgeStyle=orthogonalEdgeStyle;rounded=0;orthogonalLoop=1;jettySize=auto;html=1;" edge="1" parent="1" source="JHmqWKbBTHZgdUDeonHa-16" target="JHmqWKbBTHZgdUDeonHa-20">
          <mxGeometry relative="1" as="geometry" />
        </mxCell>
        <mxCell id="JHmqWKbBTHZgdUDeonHa-16" value="Local Repo" style="whiteSpace=wrap;html=1;" vertex="1" parent="1">
          <mxGeometry x="290" y="1270" width="120" height="60" as="geometry" />
        </mxCell>
        <mxCell id="JHmqWKbBTHZgdUDeonHa-27" value="" style="edgeStyle=orthogonalEdgeStyle;rounded=0;orthogonalLoop=1;jettySize=auto;html=1;entryX=0.5;entryY=1;entryDx=0;entryDy=0;" edge="1" parent="1" source="JHmqWKbBTHZgdUDeonHa-26" target="JHmqWKbBTHZgdUDeonHa-18">
          <mxGeometry relative="1" as="geometry">
            <mxPoint x="800" y="590" as="sourcePoint" />
            <mxPoint x="880" y="570" as="targetPoint" />
          </mxGeometry>
        </mxCell>
        <mxCell id="JHmqWKbBTHZgdUDeonHa-18" value="Master Branch&lt;div&gt;Readme&lt;/div&gt;" style="whiteSpace=wrap;html=1;rounded=0;" vertex="1" parent="1">
          <mxGeometry x="810" y="480" width="120" height="60" as="geometry" />
        </mxCell>
        <mxCell id="JHmqWKbBTHZgdUDeonHa-25" value="" style="edgeStyle=orthogonalEdgeStyle;rounded=0;orthogonalLoop=1;jettySize=auto;html=1;" edge="1" parent="1" source="JHmqWKbBTHZgdUDeonHa-20" target="JHmqWKbBTHZgdUDeonHa-24">
          <mxGeometry relative="1" as="geometry" />
        </mxCell>
        <mxCell id="JHmqWKbBTHZgdUDeonHa-20" value="Sai_Branch" style="whiteSpace=wrap;html=1;" vertex="1" parent="1">
          <mxGeometry x="290" y="1410" width="120" height="60" as="geometry" />
        </mxCell>
        <mxCell id="JHmqWKbBTHZgdUDeonHa-22" value="GitHub" style="text;html=1;align=center;verticalAlign=middle;resizable=0;points=[];autosize=1;strokeColor=none;fillColor=none;" vertex="1" parent="1">
          <mxGeometry x="820" y="428" width="60" height="30" as="geometry" />
        </mxCell>
        <mxCell id="JHmqWKbBTHZgdUDeonHa-23" value="Local" style="text;html=1;align=center;verticalAlign=middle;resizable=0;points=[];autosize=1;strokeColor=none;fillColor=none;" vertex="1" parent="1">
          <mxGeometry x="285" y="1378" width="50" height="30" as="geometry" />
        </mxCell>
        <mxCell id="JHmqWKbBTHZgdUDeonHa-24" value="Push" style="whiteSpace=wrap;html=1;" vertex="1" parent="1">
          <mxGeometry x="290" y="1550" width="120" height="60" as="geometry" />
        </mxCell>
        <mxCell id="JHmqWKbBTHZgdUDeonHa-26" value="Saibranch&lt;div&gt;sub.py&lt;/div&gt;" style="ellipse;whiteSpace=wrap;html=1;rounded=0;" vertex="1" parent="1">
          <mxGeometry x="830" y="610" width="80" height="80" as="geometry" />
        </mxCell>
        <mxCell id="JHmqWKbBTHZgdUDeonHa-29" value="Pravebranch&lt;div&gt;add.py&lt;/div&gt;" style="ellipse;whiteSpace=wrap;html=1;rounded=0;" vertex="1" parent="1">
          <mxGeometry x="830" y="740" width="80" height="80" as="geometry" />
        </mxCell>
        <mxCell id="JHmqWKbBTHZgdUDeonHa-30" value="Kiranbranch&lt;div&gt;mul.py&lt;/div&gt;" style="ellipse;whiteSpace=wrap;html=1;rounded=0;" vertex="1" parent="1">
          <mxGeometry x="830" y="860" width="80" height="80" as="geometry" />
        </mxCell>
        <mxCell id="JHmqWKbBTHZgdUDeonHa-35" style="edgeStyle=orthogonalEdgeStyle;rounded=0;orthogonalLoop=1;jettySize=auto;html=1;exitX=0.5;exitY=1;exitDx=0;exitDy=0;entryX=1;entryY=0.5;entryDx=0;entryDy=0;" edge="1" parent="1" source="JHmqWKbBTHZgdUDeonHa-10" target="JHmqWKbBTHZgdUDeonHa-12">
          <mxGeometry relative="1" as="geometry">
            <mxPoint x="439.75" y="980" as="sourcePoint" />
            <mxPoint x="599.75" y="1090" as="targetPoint" />
          </mxGeometry>
        </mxCell>
        <mxCell id="JHmqWKbBTHZgdUDeonHa-36" value="QA1&lt;div&gt;QA2&lt;/div&gt;&lt;div&gt;QA3&lt;/div&gt;" style="whiteSpace=wrap;html=1;aspect=fixed;" vertex="1" parent="1">
          <mxGeometry x="560" y="1200" width="170" height="170" as="geometry" />
        </mxCell>
        <mxCell id="JHmqWKbBTHZgdUDeonHa-37" value="meherbranch&lt;div&gt;cal.py&lt;/div&gt;" style="ellipse;whiteSpace=wrap;html=1;rounded=0;" vertex="1" parent="1">
          <mxGeometry x="830" y="970" width="80" height="80" as="geometry" />
        </mxCell>
        <mxCell id="JHmqWKbBTHZgdUDeonHa-38" value="interbranch&lt;div&gt;cal.py&lt;/div&gt;" style="ellipse;whiteSpace=wrap;html=1;rounded=0;" vertex="1" parent="1">
          <mxGeometry x="840" y="1089" width="80" height="80" as="geometry" />
        </mxCell>
      </root>
    </mxGraphModel>
  </diagram>
</mxfile>
